<?xml version="1.0" ?><!DOCTYPE svg  PUBLIC '-//W3C//DTD SVG 1.1//EN'  'http://www.w3.org/Graphics/SVG/1.1/DTD/svg11.dtd'><svg height="67px" id="Layer_1" style="enable-background:new 0 0 67 67;" version="1.1" viewBox="0 0 67 67" width="67px" xml:space="preserve" xmlns="http://www.w3.org/2000/svg" xmlns:xlink="http://www.w3.org/1999/xlink"><path d="M23.794,26.282v5.579h2.79v8.369  c0.22,6.844,3.982,8.27,8.369,8.742c2.55-0.128,5.674-1.072,7.253-2.326v-4.742c-2.031,1.974-7.484,3.91-8.462-1.674l-0.094-8.462  l8.556,0.093v-5.672H33.65l0.187-7.161l-3.44,0.093C30.633,25.229,27.387,26.047,23.794,26.282z M33,64C16.432,64,3,50.568,3,34  C3,17.431,16.432,4,33,4s30,13.431,30,30C63,50.568,49.568,64,33,64z" style="fill-rule:evenodd;clip-rule:evenodd;fill:#D8D9D8;"/></svg>